# xmcd CD database file
#
# Track frame offsets:
#	150
#	29493
#	51068
#	80597
#	99187
#	123517
#	147359
#	171477
#	198370
#	215080
#	229867
#	256952
#
# Disc length: 3601 seconds
#
# Revision: 0
# Processed by: cddbd v1.5.2PL0 Copyright (c) Steve Scherf et al.
# Submitted via: CDex 1.51
#
DISCID=ad0e0f0c
DTITLE=Paolo Fresu 5et - Thinking
DYEAR=2006
DGENRE=Jazz
TTITLE0=Montevideo
TTITLE1=DB thinking
TTITLE2=Laborioso
TTITLE3=Gallantry
TTITLE4=Alonso Santafé
TTITLE5=Marléne
TTITLE6=Pepe
TTITLE7=Ibla
TTITLE8=Blues sacrosanto
TTITLE9=Danza della Fata dei confetti (da "Lo schiaccianoci")
TTITLE10=Cronache mancate
TTITLE11=Salamandra
EXTD=YEAR: 2006
EXTT0=
EXTT1=
EXTT2=
EXTT3=
EXTT4=
EXTT5=
EXTT6=
EXTT7=
EXTT8=
EXTT9=
EXTT10=
EXTT11=
PLAYORDER=
